<svg width="47" height="45" viewBox="0 0 47 45" fill="none" xmlns="http://www.w3.org/2000/svg">
<path d="M47 19.7976C46.9967 16.4566 45.7576 13.2536 43.5546 10.8911C41.3517 8.52873 38.3647 7.19996 35.2493 7.19639C34.8779 7.19639 34.5065 7.21889 34.1393 7.25489C33.1918 5.08632 31.6877 3.25217 29.8032 1.96729C27.9187 0.682408 25.7317 0 23.4986 0C21.2654 0 19.0785 0.682408 17.194 1.96729C15.3094 3.25217 13.8054 5.08632 12.8579 7.25489C12.4907 7.21889 12.1193 7.19639 11.7479 7.19639C9.08042 7.19708 6.49256 8.171 4.40971 9.95805C2.32685 11.7451 0.872952 14.2389 0.287013 17.0296C-0.298927 19.8202 0.0179645 22.7416 1.18559 25.3135C2.35322 27.8854 4.3021 29.9548 6.71186 31.1814V41.3997C6.71186 42.3545 7.06557 43.2703 7.6952 43.9455C8.32482 44.6207 9.17878 45 10.0692 45H36.928C37.8184 45 38.6723 44.6207 39.302 43.9455C39.9316 43.2703 40.2853 42.3545 40.2853 41.3997V31.1814C42.2928 30.1576 43.9889 28.545 45.1772 26.5304C46.3655 24.5158 46.9975 22.1814 47 19.7976ZM36.928 41.3997H10.0692V32.2683C10.6251 32.3552 11.1861 32.3988 11.7479 32.3988H35.2493C35.8111 32.3988 36.3721 32.3552 36.928 32.2683V41.3997ZM35.2493 28.7985H32.3641L33.5203 23.8345C33.6197 23.3746 33.5467 22.8912 33.317 22.4885C33.0872 22.0858 32.7192 21.7959 32.2921 21.6814C31.865 21.5669 31.4131 21.6369 31.0337 21.8764C30.6542 22.1158 30.3777 22.5054 30.2636 22.9614L28.9018 28.7985H25.1773V23.3979C25.1773 22.9205 25.0004 22.4626 24.6856 22.125C24.3708 21.7874 23.9438 21.5978 23.4986 21.5978C23.0534 21.5978 22.6264 21.7874 22.3116 22.125C21.9968 22.4626 21.8199 22.9205 21.8199 23.3979V28.7985H18.0954L16.7335 22.9614C16.6832 22.7286 16.5901 22.5088 16.4598 22.315C16.3294 22.1211 16.1643 21.9571 15.9742 21.8324C15.7841 21.7076 15.5727 21.6248 15.3524 21.5886C15.1321 21.5524 14.9073 21.5636 14.6911 21.6216C14.4749 21.6795 14.2716 21.7831 14.0931 21.9262C13.9146 22.0693 13.7645 22.2491 13.6514 22.4551C13.5384 22.6611 13.4648 22.8891 13.4348 23.126C13.4048 23.3628 13.4192 23.6036 13.4769 23.8345L14.6331 28.7985H11.7479C9.52181 28.7985 7.38693 27.8501 5.81287 26.1622C4.23881 24.4742 3.35451 22.1848 3.35451 19.7976C3.35451 17.4104 4.23881 15.121 5.81287 13.433C7.38693 11.745 9.52181 10.7967 11.7479 10.7967H11.8696C11.7884 11.3928 11.7477 11.9945 11.7479 12.5969C11.7479 13.0743 11.9247 13.5322 12.2395 13.8698C12.5544 14.2074 12.9813 14.3971 13.4265 14.3971C13.8718 14.3971 14.2987 14.2074 14.6135 13.8698C14.9284 13.5322 15.1052 13.0743 15.1052 12.5969C15.1052 10.2097 15.9895 7.92032 17.5636 6.23233C19.1376 4.54434 21.2725 3.59604 23.4986 3.59604C25.7246 3.59604 27.8595 4.54434 29.4336 6.23233C31.0076 7.92032 31.8919 10.2097 31.8919 12.5969C31.8919 13.0743 32.0688 13.5322 32.3836 13.8698C32.6984 14.2074 33.1254 14.3971 33.5706 14.3971C34.0158 14.3971 34.4428 14.2074 34.7576 13.8698C35.0724 13.5322 35.2493 13.0743 35.2493 12.5969C35.2495 11.9945 35.2088 11.3928 35.1276 10.7967H35.2493C37.4753 10.7967 39.6102 11.745 41.1843 13.433C42.7584 15.121 43.6427 17.4104 43.6427 19.7976C43.6427 22.1848 42.7584 24.4742 41.1843 26.1622C39.6102 27.8501 37.4753 28.7985 35.2493 28.7985Z" fill="black"/>
</svg>
