<svg width="51" height="49" viewBox="0 0 51 49" fill="none" xmlns="http://www.w3.org/2000/svg">
<path d="M48.375 19.7813H46.3806C45.9016 14.5746 43.4946 9.73462 39.6317 6.21076C35.7688 2.6869 30.7287 0.733398 25.5 0.733398C20.2713 0.733398 15.2312 2.6869 11.3683 6.21076C7.50538 9.73462 5.09839 14.5746 4.61941 19.7813H2.625C2.11943 19.7813 1.63457 19.9821 1.27708 20.3396C0.919586 20.6971 0.71875 21.182 0.71875 21.6876C0.727126 26.2209 1.97471 30.6657 4.32659 34.5413C6.67847 38.4168 10.0451 41.5757 14.0625 43.6762V44.5626C14.0625 45.5737 14.4642 46.5434 15.1792 47.2584C15.8941 47.9734 16.8639 48.3751 17.875 48.3751H33.125C34.1361 48.3751 35.1059 47.9734 35.8208 47.2584C36.5358 46.5434 36.9375 45.5737 36.9375 44.5626V43.6762C40.9549 41.5757 44.3215 38.4168 46.6734 34.5413C49.0253 30.6657 50.2729 26.2209 50.2812 21.6876C50.2812 21.182 50.0804 20.6971 49.7229 20.3396C49.3654 19.9821 48.8806 19.7813 48.375 19.7813ZM42.5466 19.7813H30.2942C32.6053 16.314 36.1018 13.8088 40.1281 12.7353C41.4445 14.8767 42.2705 17.2829 42.5466 19.7813ZM36.337 8.39862C36.7739 8.75604 37.1925 9.13332 37.5928 9.53045C32.5182 11.3155 28.3248 14.9842 25.8813 19.7765H18.852C20.0434 16.4369 22.2368 13.5465 25.1326 11.5002C28.0285 9.45393 31.4854 8.3516 35.0312 8.34381C35.4673 8.34381 35.9034 8.36526 36.337 8.39862ZM25.5 4.53131C27.0297 4.53232 28.5524 4.73828 30.0273 5.1437C26.4351 6.0348 23.1412 7.8571 20.4777 10.4269C17.8142 12.9967 15.8751 16.2233 14.856 19.7813H8.45336C8.92622 15.5896 10.9251 11.7185 14.069 8.90602C17.2128 6.09352 21.2817 4.53633 25.5 4.53131ZM34.2354 40.7501C33.9029 40.9028 33.6214 41.1481 33.4245 41.4565C33.2276 41.765 33.1236 42.1236 33.125 42.4895V44.5626H17.875V42.4895C17.8764 42.1236 17.7724 41.765 17.5755 41.4565C17.3786 41.1481 17.0971 40.9028 16.7646 40.7501C13.4123 39.2074 10.5247 36.8101 8.39166 33.7988C6.25864 30.7875 4.95523 27.2681 4.61227 23.5938H46.3806C46.0383 27.2673 44.736 30.7862 42.6042 33.7975C40.4725 36.8088 37.5864 39.2065 34.2354 40.7501Z" fill="#1F1F1F"/>
</svg>
