<svg width="44" height="42" viewBox="0 0 44 42" fill="none" xmlns="http://www.w3.org/2000/svg">
<path d="M38.875 0.59375H5.125C3.78234 0.59375 2.49467 1.137 1.54527 2.10398C0.595869 3.07097 0.0625 4.38248 0.0625 5.75V29.8125C0.0625 31.18 0.595869 32.4915 1.54527 33.4585C2.49467 34.4255 3.78234 34.9688 5.125 34.9688H38.875C40.2177 34.9688 41.5053 34.4255 42.4547 33.4585C43.4041 32.4915 43.9375 31.18 43.9375 29.8125V5.75C43.9375 4.38248 43.4041 3.07097 42.4547 2.10398C41.5053 1.137 40.2177 0.59375 38.875 0.59375ZM40.5625 29.8125C40.5625 30.2683 40.3847 30.7055 40.0682 31.0278C39.7518 31.3502 39.3226 31.5312 38.875 31.5312H5.125C4.67745 31.5312 4.24823 31.3502 3.93176 31.0278C3.61529 30.7055 3.4375 30.2683 3.4375 29.8125V5.75C3.4375 5.29416 3.61529 4.85699 3.93176 4.53466C4.24823 4.21233 4.67745 4.03125 5.125 4.03125H38.875C39.3226 4.03125 39.7518 4.21233 40.0682 4.53466C40.3847 4.85699 40.5625 5.29416 40.5625 5.75V29.8125ZM30.4375 40.125C30.4375 40.5808 30.2597 41.018 29.9432 41.3403C29.6268 41.6627 29.1976 41.8438 28.75 41.8438H15.25C14.8024 41.8438 14.3732 41.6627 14.0568 41.3403C13.7403 41.018 13.5625 40.5808 13.5625 40.125C13.5625 39.6692 13.7403 39.232 14.0568 38.9097C14.3732 38.5873 14.8024 38.4062 15.25 38.4062H28.75C29.1976 38.4062 29.6268 38.5873 29.9432 38.9097C30.2597 39.232 30.4375 39.6692 30.4375 40.125ZM29.6866 16.3504L19.5616 9.47539C19.3074 9.30265 19.0119 9.20346 18.7067 9.1884C18.4014 9.17334 18.0979 9.24297 17.8285 9.38987C17.5591 9.53677 17.3339 9.75542 17.177 10.0225C17.0201 10.2896 16.9373 10.595 16.9375 10.9062V24.6562C16.9373 24.9675 17.0201 25.2729 17.177 25.54C17.3339 25.8071 17.5591 26.0257 17.8285 26.1726C18.0979 26.3195 18.4014 26.3892 18.7067 26.3741C19.0119 26.359 19.3074 26.2598 19.5616 26.0871L29.6866 19.2121C29.918 19.0552 30.1079 18.8425 30.2391 18.5929C30.3704 18.3432 30.4391 18.0644 30.4391 17.7812C30.4391 17.4981 30.3704 17.2193 30.2391 16.9696C30.1079 16.72 29.918 16.5073 29.6866 16.3504ZM20.3125 21.4443V14.1289L25.7083 17.7812L20.3125 21.4443Z" fill="black"/>
</svg>
