<svg width="22" height="23" viewBox="0 0 22 23" fill="none" xmlns="http://www.w3.org/2000/svg">
<g clip-path="url(#clip0_708_3625)">
<path d="M7.5625 4.3125V1.4375C7.5625 1.24688 7.63494 1.06406 7.76387 0.929267C7.8928 0.794475 8.06767 0.71875 8.25 0.71875C8.43234 0.71875 8.60721 0.794475 8.73614 0.929267C8.86507 1.06406 8.9375 1.24688 8.9375 1.4375V4.3125C8.9375 4.50312 8.86507 4.68594 8.73614 4.82073C8.60721 4.95552 8.43234 5.03125 8.25 5.03125C8.06767 5.03125 7.8928 4.95552 7.76387 4.82073C7.63494 4.68594 7.5625 4.50312 7.5625 4.3125ZM11 5.03125C11.1823 5.03125 11.3572 4.95552 11.4861 4.82073C11.6151 4.68594 11.6875 4.50312 11.6875 4.3125V1.4375C11.6875 1.24688 11.6151 1.06406 11.4861 0.929267C11.3572 0.794475 11.1823 0.71875 11 0.71875C10.8177 0.71875 10.6428 0.794475 10.5139 0.929267C10.3849 1.06406 10.3125 1.24688 10.3125 1.4375V4.3125C10.3125 4.50312 10.3849 4.68594 10.5139 4.82073C10.6428 4.95552 10.8177 5.03125 11 5.03125ZM13.75 5.03125C13.9323 5.03125 14.1072 4.95552 14.2361 4.82073C14.3651 4.68594 14.4375 4.50312 14.4375 4.3125V1.4375C14.4375 1.24688 14.3651 1.06406 14.2361 0.929267C14.1072 0.794475 13.9323 0.71875 13.75 0.71875C13.5677 0.71875 13.3928 0.794475 13.2639 0.929267C13.1349 1.06406 13.0625 1.24688 13.0625 1.4375V4.3125C13.0625 4.50312 13.1349 4.68594 13.2639 4.82073C13.3928 4.95552 13.5677 5.03125 13.75 5.03125ZM21.8625 8.19375C21.7531 8.04125 21.5902 7.94043 21.4097 7.91347C21.2292 7.88652 21.0459 7.93563 20.9 8.05L19.25 9.34375V7.1875C19.25 6.99688 19.1776 6.81406 19.0486 6.67927C18.9197 6.54448 18.7448 6.46875 18.5625 6.46875H3.4375C3.25517 6.46875 3.0803 6.54448 2.95137 6.67927C2.82244 6.81406 2.75 6.99688 2.75 7.1875V9.34375L1.1 8.05C0.954134 7.93563 0.770779 7.88652 0.590276 7.91347C0.409772 7.94043 0.246905 8.04125 0.137503 8.19375C0.028101 8.34625 -0.0188737 8.53794 0.00691253 8.72665C0.0326988 8.91535 0.129134 9.08563 0.275003 9.2L2.75 11.1406V16.5312C2.75 17.2937 3.03973 18.025 3.55546 18.5642C4.07118 19.1033 4.77066 19.4062 5.5 19.4062H16.5C17.2293 19.4062 17.9288 19.1033 18.4445 18.5642C18.9603 18.025 19.25 17.2937 19.25 16.5312V11.1406L21.725 9.2C21.7972 9.14337 21.8581 9.07242 21.9041 8.9912C21.9501 8.90998 21.9803 8.82009 21.9931 8.72665C22.0059 8.63321 22.0009 8.53805 21.9785 8.44662C21.9561 8.35519 21.9167 8.26926 21.8625 8.19375Z" fill="#F3F4F6"/>
</g>
<defs>
<clipPath id="clip0_708_3625">
<rect width="22" height="23" fill="white"/>
</clipPath>
</defs>
</svg>
