<svg width="24" height="25" viewBox="0 0 24 25" fill="none" xmlns="http://www.w3.org/2000/svg">
<path d="M12 2.34375C10.0716 2.34375 8.18657 2.9394 6.58319 4.05539C4.97982 5.17137 3.73013 6.75756 2.99218 8.61337C2.25422 10.4692 2.06114 12.5113 2.43735 14.4814C2.81355 16.4515 3.74215 18.2612 5.10571 19.6816C6.46928 21.1019 8.20656 22.0692 10.0979 22.4611C11.9892 22.853 13.9496 22.6519 15.7312 21.8832C17.5127 21.1144 19.0355 19.8127 20.1068 18.1425C21.1782 16.4723 21.75 14.5087 21.75 12.5C21.7473 9.80727 20.7192 7.22564 18.8913 5.32159C17.0634 3.41754 14.585 2.34659 12 2.34375ZM13.125 17.1875H12.75V17.9688C12.75 18.176 12.671 18.3747 12.5303 18.5212C12.3897 18.6677 12.1989 18.75 12 18.75C11.8011 18.75 11.6103 18.6677 11.4697 18.5212C11.329 18.3747 11.25 18.176 11.25 17.9688V17.1875H9.75C9.55109 17.1875 9.36033 17.1052 9.21967 16.9587C9.07902 16.8122 9 16.6135 9 16.4062C9 16.199 9.07902 16.0003 9.21967 15.8538C9.36033 15.7073 9.55109 15.625 9.75 15.625H13.125C13.4234 15.625 13.7095 15.5015 13.9205 15.2818C14.1315 15.062 14.25 14.7639 14.25 14.4531C14.25 14.1423 14.1315 13.8443 13.9205 13.6245C13.7095 13.4047 13.4234 13.2812 13.125 13.2812H10.875C10.1788 13.2812 9.51113 12.9932 9.01885 12.4804C8.52657 11.9676 8.25 11.2721 8.25 10.5469C8.25 9.82167 8.52657 9.12617 9.01885 8.61338C9.51113 8.10059 10.1788 7.8125 10.875 7.8125H11.25V7.03125C11.25 6.82405 11.329 6.62534 11.4697 6.47882C11.6103 6.33231 11.8011 6.25 12 6.25C12.1989 6.25 12.3897 6.33231 12.5303 6.47882C12.671 6.62534 12.75 6.82405 12.75 7.03125V7.8125H14.25C14.4489 7.8125 14.6397 7.89481 14.7803 8.04132C14.921 8.18784 15 8.38655 15 8.59375C15 8.80095 14.921 8.99966 14.7803 9.14618C14.6397 9.29269 14.4489 9.375 14.25 9.375H10.875C10.5766 9.375 10.2905 9.49847 10.0795 9.71823C9.86853 9.938 9.75 10.2361 9.75 10.5469C9.75 10.8577 9.86853 11.1557 10.0795 11.3755C10.2905 11.5953 10.5766 11.7188 10.875 11.7188H13.125C13.8212 11.7188 14.4889 12.0068 14.9812 12.5196C15.4734 13.0324 15.75 13.7279 15.75 14.4531C15.75 15.1783 15.4734 15.8738 14.9812 16.3866C14.4889 16.8994 13.8212 17.1875 13.125 17.1875Z" fill="#F3F4F6"/>
</svg>
