<svg width="28" height="29" viewBox="0 0 28 29" fill="none" xmlns="http://www.w3.org/2000/svg">
<path d="M23.987 12.3117L15.237 3.2492C14.9089 2.90955 14.4639 2.71875 14 2.71875C13.5361 2.71875 13.0911 2.90955 12.763 3.2492L4.01298 12.3117C3.84969 12.4796 3.72025 12.6794 3.63218 12.8995C3.54412 13.1197 3.49919 13.3558 3.50001 13.594V24.469C3.50001 24.7094 3.5922 24.9399 3.75629 25.1099C3.92039 25.2798 4.14295 25.3753 4.37501 25.3753H23.625C23.8571 25.3753 24.0796 25.2798 24.2437 25.1099C24.4078 24.9399 24.5 24.7094 24.5 24.469V13.594C24.5008 13.3558 24.4559 13.1197 24.3678 12.8995C24.2798 12.6794 24.1503 12.4796 23.987 12.3117ZM22.75 23.5628H5.25001V13.594L14 4.53154L22.75 13.594V23.5628Z" fill="#F3F4F6"/>
</svg>
