<svg width="24" height="25" viewBox="0 0 24 25" fill="none" xmlns="http://www.w3.org/2000/svg">
<path d="M20.25 12.711C20.2538 12.5704 20.2538 12.4298 20.25 12.2892L21.6488 10.4689C21.7221 10.3733 21.7729 10.2611 21.797 10.1413C21.8211 10.0216 21.8178 9.89761 21.7875 9.7794C21.5578 8.8817 21.2148 8.01969 20.7675 7.21593C20.7089 7.11077 20.6275 7.02131 20.5299 6.95469C20.4322 6.88806 20.321 6.8461 20.205 6.83214L17.9813 6.57432C17.8888 6.47276 17.795 6.37511 17.7 6.28136L17.4375 3.95909C17.424 3.8382 17.3836 3.72227 17.3195 3.62055C17.2553 3.51882 17.1693 3.4341 17.0681 3.37315C16.2966 2.90758 15.469 2.55093 14.6072 2.31261C14.4937 2.28102 14.3747 2.27765 14.2597 2.30275C14.1448 2.32786 14.0371 2.38074 13.9453 2.45714L12.2025 3.90636C12.0675 3.90636 11.9325 3.90636 11.7975 3.90636L10.05 2.45225C9.95826 2.37586 9.85056 2.32297 9.7356 2.29787C9.62064 2.27277 9.50162 2.27614 9.38814 2.30772C8.52634 2.54701 7.69881 2.90429 6.9272 3.37022C6.82625 3.43128 6.74037 3.51605 6.67641 3.61777C6.61245 3.71949 6.57216 3.83536 6.55876 3.95616L6.31126 6.27647C6.21376 6.37348 6.12001 6.47113 6.03001 6.56944L3.80064 6.83604C3.68459 6.85011 3.57329 6.89222 3.47563 6.95902C3.37797 7.02582 3.29665 7.11547 3.23814 7.22081C2.79128 8.02468 2.44861 8.88667 2.21907 9.78429C2.18888 9.90257 2.1858 10.0266 2.21006 10.1463C2.23432 10.2661 2.28526 10.3782 2.35876 10.4737L3.75001 12.2892C3.75001 12.4298 3.75001 12.5704 3.75001 12.711L2.35407 14.5314C2.28073 14.6269 2.22997 14.7391 2.20587 14.8589C2.18177 14.9786 2.18501 15.1026 2.21532 15.2208C2.44504 16.1185 2.78803 16.9805 3.23532 17.7843C3.29394 17.8894 3.37532 17.9789 3.47297 18.0455C3.57062 18.1122 3.68186 18.1541 3.79782 18.1681L6.02158 18.4259C6.1147 18.5274 6.20845 18.6251 6.30283 18.7189L6.56251 21.0411C6.57601 21.162 6.61644 21.2779 6.68057 21.3797C6.7447 21.4814 6.83076 21.5661 6.93189 21.6271C7.7036 22.0925 8.53111 22.4495 9.39283 22.6886C9.50638 22.72 9.62544 22.7232 9.74041 22.698C9.85537 22.6727 9.96303 22.6196 10.0547 22.5431L11.7975 21.0939C11.9325 21.0978 12.0675 21.0978 12.2025 21.0939L13.95 22.5509C14.0418 22.6273 14.1495 22.6802 14.2644 22.7053C14.3794 22.7304 14.4984 22.727 14.6119 22.6954C15.4738 22.4566 16.3014 22.0993 17.0728 21.6329C17.1738 21.5719 17.2597 21.4871 17.3236 21.3854C17.3876 21.2836 17.4279 21.1678 17.4413 21.047L17.6888 18.7306C17.7863 18.6342 17.88 18.5366 17.97 18.4376L20.1994 18.1642C20.3154 18.1501 20.4267 18.108 20.5244 18.0412C20.6221 17.9744 20.7034 17.8847 20.7619 17.7794C21.2088 16.9755 21.5514 16.1135 21.781 15.2159C21.8111 15.0976 21.8142 14.9736 21.79 14.8539C21.7657 14.7341 21.7148 14.622 21.6413 14.5265L20.25 12.711ZM12 16.4064C11.2583 16.4064 10.5333 16.1773 9.91662 15.748C9.29994 15.3188 8.81929 14.7087 8.53546 13.995C8.25164 13.2812 8.17737 12.4958 8.32207 11.738C8.46676 10.9803 8.82392 10.2843 9.34836 9.73797C9.87281 9.19167 10.541 8.81964 11.2684 8.66891C11.9959 8.51819 12.7499 8.59555 13.4351 8.8912C14.1203 9.18686 14.706 9.68753 15.118 10.3299C15.5301 10.9723 15.75 11.7275 15.75 12.5001C15.75 13.5361 15.3549 14.5297 14.6517 15.2622C13.9484 15.9948 12.9946 16.4064 12 16.4064Z" fill="#F3F4F6"/>
</svg>
