<svg width="24" height="25" viewBox="0 0 24 25" fill="none" xmlns="http://www.w3.org/2000/svg">
<path d="M12 2.34375C10.0716 2.34375 8.18657 2.9394 6.58319 4.05539C4.97982 5.17137 3.73013 6.75756 2.99218 8.61337C2.25422 10.4692 2.06114 12.5113 2.43735 14.4814C2.81355 16.4515 3.74215 18.2612 5.10571 19.6816C6.46928 21.1019 8.20656 22.0692 10.0979 22.4611C11.9892 22.853 13.9496 22.6519 15.7312 21.8832C17.5127 21.1144 19.0355 19.8127 20.1068 18.1425C21.1782 16.4723 21.75 14.5087 21.75 12.5C21.747 9.80735 20.7188 7.22587 18.891 5.32187C17.0632 3.41788 14.585 2.34685 12 2.34375ZM19.3463 8.59375H16.0041C15.5832 6.98526 14.8738 5.47429 13.9134 4.14063C15.0738 4.43099 16.1602 4.97927 17.098 5.74791C18.0359 6.51654 18.8032 7.48734 19.3472 8.59375H19.3463ZM20.25 12.5C20.2507 13.2925 20.1456 14.0813 19.9378 14.8438H16.3275C16.5575 13.2904 16.5575 11.7096 16.3275 10.1562H19.9378C20.1456 10.9187 20.2507 11.7075 20.25 12.5ZM12 4.19922C13.1231 5.45168 13.9567 6.95472 14.4375 8.59375H9.5625C10.0428 6.9545 10.8765 5.45135 12 4.19922ZM9.5625 16.4062H14.4375C13.9572 18.0455 13.1235 19.5487 12 20.8008C10.877 19.5483 10.0433 18.0453 9.5625 16.4062ZM9.19688 14.8438C8.93939 13.2928 8.93939 11.7072 9.19688 10.1562H14.8106C15.0681 11.7072 15.0681 13.2928 14.8106 14.8438H9.19688ZM13.9172 20.8594C14.8776 19.5257 15.5869 18.0147 16.0078 16.4062H19.3509C18.8065 17.5131 18.0387 18.4842 17.1001 19.2528C16.1616 20.0215 15.0745 20.5695 13.9134 20.8594H13.9172Z" fill="#F3F4F6"/>
</svg>
