<svg width="24" height="25" viewBox="0 0 24 25" fill="none" xmlns="http://www.w3.org/2000/svg">
<path d="M20.25 4.5H3.75C3.35218 4.5 2.97064 4.65804 2.68934 4.93934C2.40804 5.22064 2.25 5.60218 2.25 6V19.5C2.25 19.8978 2.40804 20.2794 2.68934 20.5607C2.97064 20.842 3.35218 21 3.75 21H20.25C20.6478 21 21.0294 20.842 21.3107 20.5607C21.592 20.2794 21.75 19.8978 21.75 19.5V6C21.75 5.60218 21.592 5.22064 21.3107 4.93934C21.0294 4.65804 20.6478 4.5 20.25 4.5ZM14.625 9C14.8475 9 15.065 9.06598 15.25 9.1896C15.435 9.31321 15.5792 9.48891 15.6644 9.69448C15.7495 9.90005 15.7718 10.1262 15.7284 10.3445C15.685 10.5627 15.5778 10.7632 15.4205 10.9205C15.2632 11.0778 15.0627 11.185 14.8445 11.2284C14.6262 11.2718 14.4 11.2495 14.1945 11.1644C13.9889 11.0792 13.8132 10.935 13.6896 10.75C13.566 10.565 13.5 10.3475 13.5 10.125C13.5 9.82663 13.6185 9.54048 13.8295 9.3295C14.0405 9.11853 14.3266 9 14.625 9ZM20.25 19.5H3.75V15.8147L8.09437 11.4694C8.16403 11.3996 8.24675 11.3443 8.33779 11.3066C8.42884 11.2688 8.52644 11.2494 8.625 11.2494C8.72356 11.2494 8.82116 11.2688 8.91221 11.3066C9.00325 11.3443 9.08597 11.3996 9.15563 11.4694L15.4688 17.7806C15.6095 17.9214 15.8004 18.0004 15.9994 18.0004C16.1984 18.0004 16.3893 17.9214 16.53 17.7806C16.6707 17.6399 16.7498 17.449 16.7498 17.25C16.7498 17.051 16.6707 16.8601 16.53 16.7194L14.8744 15.0647L16.2188 13.7194C16.3594 13.5788 16.5501 13.4999 16.7489 13.4999C16.9477 13.4999 17.1384 13.5788 17.2791 13.7194L20.25 16.6941V19.5Z" fill="#F3F4F6"/>
</svg>
