<svg width="20" height="15" viewBox="0 0 20 15" fill="none" xmlns="http://www.w3.org/2000/svg">
<path d="M18.75 0H0.75C0.551088 0 0.360322 0.0790178 0.21967 0.21967C0.0790176 0.360322 0 0.551088 0 0.75V13.5C0 13.8978 0.158035 14.2794 0.43934 14.5607C0.720644 14.842 1.10218 15 1.5 15H18C18.3978 15 18.7794 14.842 19.0607 14.5607C19.342 14.2794 19.5 13.8978 19.5 13.5V0.75C19.5 0.551088 19.421 0.360322 19.2803 0.21967C19.1397 0.0790178 18.9489 0 18.75 0ZM9.75 7.98281L2.67844 1.5H16.8216L9.75 7.98281ZM7.00406 7.5L1.5 12.5447V2.45531L7.00406 7.5ZM8.11406 8.51719L9.23906 9.55312C9.37743 9.68014 9.55842 9.75062 9.74625 9.75062C9.93408 9.75062 10.1151 9.68014 10.2534 9.55312L11.3784 8.51719L16.8159 13.5H2.67844L8.11406 8.51719ZM12.4959 7.5L18 2.45438V12.5456L12.4959 7.5Z" fill="#F3F4F6"/>
</svg>
