<svg width="24" height="25" viewBox="0 0 24 25" fill="none" xmlns="http://www.w3.org/2000/svg">
<path d="M18.75 7.03202H15.0187C14.7459 7.01541 9.99188 6.66678 5.46469 2.7117C5.24607 2.52045 4.97959 2.39815 4.69656 2.35918C4.41353 2.32021 4.12571 2.36618 3.86689 2.4917C3.60807 2.61722 3.38902 2.81707 3.23546 3.06778C3.0819 3.31848 3.00022 3.60963 3 3.90701V19.532C3.00004 19.8295 3.0816 20.1208 3.23508 20.3716C3.38857 20.6225 3.60761 20.8225 3.86646 20.9481C4.12532 21.0737 4.41322 21.1198 4.69633 21.0809C4.97945 21.0419 5.24601 20.9196 5.46469 20.7283C9.00563 17.6346 12.6834 16.7478 14.25 16.4998V19.5974C14.2497 19.8549 14.3105 20.1085 14.4269 20.3356C14.5434 20.5627 14.7119 20.7563 14.9175 20.8992L15.9487 21.615C16.1481 21.7536 16.3764 21.8404 16.6145 21.8682C16.8527 21.896 17.0938 21.8639 17.3176 21.7747C17.5414 21.6855 17.7414 21.5417 17.901 21.3554C18.0605 21.1691 18.1748 20.9457 18.2344 20.7039L19.3378 16.3719C20.4785 16.2259 21.5224 15.6308 22.2553 14.7087C22.9882 13.7866 23.3546 12.6073 23.2795 11.4127C23.2043 10.2181 22.6932 9.09875 21.8509 8.28419C21.0087 7.46964 19.8992 7.02162 18.75 7.03202ZM16.7812 20.3025V20.3133L15.75 19.5974V16.407H17.775L16.7812 20.3025ZM18.75 14.8445H15.75V8.59452H18.75C19.5456 8.59452 20.3087 8.92375 20.8713 9.50981C21.4339 10.0959 21.75 10.8907 21.75 11.7195C21.75 12.5483 21.4339 13.3432 20.8713 13.9292C20.3087 14.5153 19.5456 14.8445 18.75 14.8445Z" fill="#F3F4F6"/>
</svg>
