<svg width="24" height="25" viewBox="0 0 24 25" fill="none" xmlns="http://www.w3.org/2000/svg">
<path d="M20.25 12.5V20.3125C20.25 20.7269 20.092 21.1243 19.8107 21.4174C19.5294 21.7104 19.1478 21.875 18.75 21.875H4.5C4.10218 21.875 3.72064 21.7104 3.43934 21.4174C3.15804 21.1243 3 20.7269 3 20.3125V5.46875C3 5.05435 3.15804 4.65692 3.43934 4.3639C3.72064 4.07087 4.10218 3.90625 4.5 3.90625H12C12.1989 3.90625 12.3897 3.98856 12.5303 4.13507C12.671 4.28159 12.75 4.4803 12.75 4.6875C12.75 4.8947 12.671 5.09341 12.5303 5.23993C12.3897 5.38644 12.1989 5.46875 12 5.46875H4.5V20.3125H18.75V12.5C18.75 12.2928 18.829 12.0941 18.9697 11.9476C19.1103 11.8011 19.3011 11.7188 19.5 11.7188C19.6989 11.7188 19.8897 11.8011 20.0303 11.9476C20.171 12.0941 20.25 12.2928 20.25 12.5ZM18.375 2.34375C17.7075 2.34375 17.055 2.54994 16.5 2.93624C15.9449 3.32254 15.5124 3.87161 15.2569 4.514C15.0015 5.1564 14.9346 5.86328 15.0648 6.54524C15.1951 7.2272 15.5165 7.85363 15.9885 8.3453C16.4605 8.83697 17.0619 9.1718 17.7166 9.30745C18.3713 9.4431 19.0499 9.37348 19.6666 9.10739C20.2833 8.8413 20.8104 8.39069 21.1812 7.81255C21.5521 7.23441 21.75 6.5547 21.75 5.85938C21.75 4.92697 21.3944 4.03276 20.7615 3.37345C20.1285 2.71415 19.2701 2.34375 18.375 2.34375Z" fill="#F3F4F6"/>
</svg>
