<svg width="20" height="20" viewBox="0 0 20 20" fill="none" xmlns="http://www.w3.org/2000/svg">
<path d="M9.75 0C7.82164 0 5.93657 0.571828 4.33319 1.64317C2.72982 2.71452 1.48013 4.23726 0.742179 6.01884C0.00422448 7.80042 -0.188858 9.76082 0.187348 11.6521C0.563554 13.5434 1.49215 15.2807 2.85571 16.6443C4.21927 18.0079 5.95656 18.9365 7.84787 19.3127C9.73919 19.6889 11.6996 19.4958 13.4812 18.7578C15.2627 18.0199 16.7855 16.7702 17.8568 15.1668C18.9282 13.5634 19.5 11.6784 19.5 9.75C19.4973 7.16498 18.4692 4.68661 16.6413 2.85872C14.8134 1.03084 12.335 0.00272983 9.75 0ZM9.75 18C8.11831 18 6.52326 17.5161 5.16655 16.6096C3.80984 15.7031 2.75242 14.4146 2.128 12.9071C1.50358 11.3996 1.3402 9.74085 1.65853 8.1405C1.97685 6.54016 2.76259 5.07015 3.91637 3.91637C5.07016 2.76259 6.54017 1.97685 8.14051 1.65852C9.74085 1.34019 11.3997 1.50357 12.9071 2.12799C14.4146 2.75242 15.7031 3.80984 16.6096 5.16655C17.5161 6.52325 18 8.1183 18 9.75C17.9975 11.9373 17.1275 14.0343 15.5809 15.5809C14.0343 17.1275 11.9373 17.9975 9.75 18ZM13.5 8.25C13.5001 7.62061 13.3419 7.00132 13.0398 6.44918C12.7376 5.89704 12.3014 5.42982 11.7713 5.09058C11.2412 4.75133 10.6342 4.55097 10.0063 4.50796C9.37835 4.46495 8.74971 4.58068 8.17827 4.84447C7.60684 5.10826 7.11099 5.51164 6.73642 6.01743C6.36185 6.52322 6.1206 7.11515 6.03492 7.73867C5.94923 8.3622 6.02186 8.99726 6.24612 9.58534C6.47037 10.1734 6.83903 10.6956 7.31813 11.1038L6.06375 13.9472C6.01337 14.0614 5.99227 14.1863 6.00237 14.3107C6.01247 14.4351 6.05345 14.555 6.1216 14.6595C6.18975 14.7641 6.28291 14.85 6.39264 14.9094C6.50237 14.9689 6.6252 15 6.75 15H12.75C12.8748 15 12.9976 14.9689 13.1074 14.9094C13.2171 14.85 13.3103 14.7641 13.3784 14.6595C13.4466 14.555 13.4875 14.4351 13.4976 14.3107C13.5077 14.1863 13.4866 14.0614 13.4363 13.9472L12.1819 11.1038C12.5943 10.7512 12.9257 10.3137 13.1532 9.8211C13.3807 9.32853 13.499 8.79258 13.5 8.25ZM10.5638 11.1562L11.595 13.5047H7.90032L8.93157 11.1562C9.008 10.9871 9.01897 10.7955 8.96234 10.6187C8.90571 10.4419 8.78551 10.2924 8.625 10.1991C8.19606 9.95141 7.86082 9.56914 7.67128 9.11154C7.48173 8.65394 7.44848 8.14659 7.57667 7.66816C7.70486 7.18974 7.98734 6.76698 8.38029 6.46546C8.77324 6.16394 9.2547 6.00051 9.75 6.00051C10.2453 6.00051 10.7268 6.16394 11.1197 6.46546C11.5127 6.76698 11.7951 7.18974 11.9233 7.66816C12.0515 8.14659 12.0183 8.65394 11.8287 9.11154C11.6392 9.56914 11.3039 9.95141 10.875 10.1991C10.7137 10.2916 10.5925 10.4408 10.535 10.6177C10.4775 10.7946 10.4877 10.9865 10.5638 11.1562Z" fill="#F3F4F6"/>
</svg>
