<svg width="24" height="25" viewBox="0 0 24 25" fill="none" xmlns="http://www.w3.org/2000/svg">
<path d="M20.636 10.1758C20.1326 9.50189 19.4843 8.96065 18.7432 8.5957C18.6796 7.19163 18.0994 5.86698 17.1231 4.89669C16.1467 3.92639 14.8492 3.38496 13.4998 3.38477H7.87477C7.54028 3.38482 7.2154 3.50133 6.95177 3.71579C6.68814 3.93024 6.50089 4.23033 6.41977 4.56836L3.04477 18.6309C2.9895 18.8612 2.98535 19.1016 3.03263 19.3339C3.07991 19.5661 3.17738 19.7841 3.31764 19.9713C3.4579 20.1584 3.63726 20.3098 3.84209 20.414C4.04692 20.5181 4.27185 20.5722 4.49977 20.5723H7.0779L6.79665 21.7559C6.74141 21.986 6.73723 22.2263 6.7844 22.4584C6.83158 22.6905 6.92889 22.9084 7.06894 23.0955C7.20899 23.2826 7.3881 23.434 7.5927 23.5383C7.7973 23.6426 8.022 23.6969 8.24977 23.6973H11.2029C11.5371 23.6968 11.8615 23.5801 12.1248 23.3656C12.388 23.1512 12.575 22.8514 12.656 22.5137L13.4998 19.0098H16.4998C17.4834 19.0097 18.4472 18.7219 19.2814 18.179C20.1155 17.6361 20.7865 16.86 21.2179 15.9392C21.6492 15.0184 21.8235 13.9899 21.721 12.9709C21.6184 11.9519 21.2432 10.9834 20.6379 10.1758H20.636ZM4.49977 19.0098L7.87477 4.94727H13.4998C14.3724 4.94701 15.2177 5.26373 15.8902 5.84288C16.5627 6.42203 17.0203 7.22734 17.1841 8.12012C16.9572 8.08892 16.7286 8.07293 16.4998 8.07227H11.2498C10.9151 8.0721 10.59 8.18851 10.3262 8.40298C10.0624 8.61746 9.87499 8.91767 9.79384 9.25586L7.45477 19.0098H4.49977ZM20.1345 14.4883C19.9327 15.3334 19.4652 16.0838 18.8065 16.6201C18.1478 17.1563 17.3358 17.4475 16.4998 17.4473H13.4998C13.1653 17.4473 12.8404 17.5638 12.5768 17.7783C12.3131 17.9927 12.1259 18.2928 12.0448 18.6309L11.201 22.1348H8.24977L10.1248 14.3223H13.4998C14.653 14.3226 15.7741 13.9267 16.6894 13.196C17.6046 12.4652 18.2629 11.4403 18.5623 10.2803C18.9009 10.514 19.201 10.8032 19.451 11.1367C19.8038 11.6035 20.049 12.1484 20.1676 12.7295C20.2863 13.3106 20.2753 13.9123 20.1354 14.4883H20.1345Z" fill="#F3F4F6"/>
</svg>
