<svg width="24" height="25" viewBox="0 0 24 25" fill="none" xmlns="http://www.w3.org/2000/svg">
<path d="M22.8103 7.94605L16.3716 1.23902C16.2323 1.09389 16.0669 0.978768 15.8849 0.900222C15.7029 0.821677 15.5078 0.78125 15.3108 0.78125C15.1138 0.78125 14.9187 0.821677 14.7367 0.900222C14.5547 0.978768 14.3893 1.09389 14.25 1.23902L11.5837 4.01637L6.14624 6.14137C5.89916 6.23713 5.68068 6.39904 5.5128 6.61077C5.34492 6.82251 5.23358 7.07659 5.18999 7.34742L3.2428 19.5154C3.22975 19.597 3.2419 19.6808 3.27749 19.7547C3.31309 19.8287 3.37029 19.8889 3.44087 19.9268C3.51145 19.9647 3.59176 19.9783 3.67022 19.9656C3.74869 19.9529 3.82126 19.9146 3.87749 19.8562L9.22124 14.2898C9.05193 13.9229 8.97791 13.5161 9.00655 13.1101C9.04141 12.6106 9.22895 12.1359 9.54169 11.7555C9.85442 11.3751 10.2759 11.1091 10.7444 10.9964C11.2128 10.8837 11.7036 10.9303 12.1448 11.1293C12.586 11.3283 12.9544 11.6693 13.1959 12.1023C13.4375 12.5353 13.5396 13.0375 13.4872 13.5354C13.4349 14.0332 13.2308 14.5005 12.9049 14.8687C12.579 15.2369 12.1485 15.4867 11.6764 15.5815C11.2043 15.6762 10.7155 15.611 10.2816 15.3953L4.9378 20.9617C4.88174 21.0202 4.84496 21.0958 4.83278 21.1776C4.8206 21.2593 4.83364 21.343 4.87003 21.4165C4.90641 21.49 4.96426 21.5496 5.03524 21.5867C5.10622 21.6238 5.18667 21.6364 5.26499 21.6228L16.9472 19.5945C17.2068 19.5494 17.4504 19.434 17.6536 19.2599C17.8569 19.0857 18.0125 18.8589 18.105 18.6023L20.1459 12.9314L22.8103 10.157C22.9496 10.0119 23.0601 9.83963 23.1356 9.65003C23.211 9.46044 23.2498 9.25723 23.2498 9.05201C23.2498 8.84679 23.211 8.64358 23.1356 8.45398C23.0601 8.26439 22.9496 8.09213 22.8103 7.94703V7.94605ZM19.5 11.3953L13.0612 4.68824L15.3112 2.34449L21.75 9.05152L19.5 11.3953Z" fill="#F3F4F6"/>
</svg>
