<svg width="25" height="25" viewBox="0 0 25 25" fill="none" xmlns="http://www.w3.org/2000/svg">
<path d="M20.75 4.11133H4.25C3.85218 4.11133 3.47064 4.26936 3.18934 4.55067C2.90804 4.83197 2.75 5.2135 2.75 5.61133V19.1113C2.75 19.5092 2.90804 19.8907 3.18934 20.172C3.47064 20.4533 3.85218 20.6113 4.25 20.6113H20.75C21.1478 20.6113 21.5294 20.4533 21.8107 20.172C22.092 19.8907 22.25 19.5092 22.25 19.1113V5.61133C22.25 5.2135 22.092 4.83197 21.8107 4.55067C21.5294 4.26936 21.1478 4.11133 20.75 4.11133ZM20 13.1113H18.185L15.4062 17.9863C15.3403 18.1006 15.2453 18.1955 15.1308 18.2614C15.0164 18.3272 14.8867 18.3617 14.7547 18.3613H14.7116C14.5724 18.3532 14.4382 18.3065 14.3241 18.2263C14.21 18.1462 14.1205 18.0358 14.0656 17.9076L10.1562 8.79133L7.90625 12.7363C7.83986 12.8513 7.74412 12.9467 7.62882 13.0125C7.51352 13.0784 7.38279 13.1125 7.25 13.1113H5C4.80109 13.1113 4.61032 13.0323 4.46967 12.8917C4.32902 12.751 4.25 12.5602 4.25 12.3613C4.25 12.1624 4.32902 11.9717 4.46967 11.831C4.61032 11.6903 4.80109 11.6113 5 11.6113H6.815L9.59844 6.73633C9.66765 6.6152 9.76928 6.51578 9.8919 6.44924C10.0145 6.3827 10.1533 6.35168 10.2926 6.35967C10.4318 6.36766 10.5661 6.41433 10.6803 6.49445C10.7945 6.57457 10.8841 6.68496 10.9391 6.8132L14.8438 15.9313L17.0938 11.9891C17.1597 11.8748 17.2547 11.78 17.3692 11.7141C17.4836 11.6483 17.6133 11.6138 17.7453 11.6141H19.9953C20.1942 11.6141 20.385 11.6932 20.5256 11.8338C20.6663 11.9745 20.7453 12.1652 20.7453 12.3641C20.7453 12.5631 20.6663 12.7538 20.5256 12.8945C20.385 13.0351 20.1942 13.1141 19.9953 13.1141L20 13.1113Z" fill="#F3F4F6"/>
</svg>
