<svg width="24" height="25" viewBox="0 0 24 25" fill="none" xmlns="http://www.w3.org/2000/svg">
<path d="M23.0625 9.6416L17.8125 3.3916C17.7423 3.30809 17.6558 3.24112 17.5588 3.19515C17.4618 3.14918 17.3566 3.12526 17.25 3.125H6.74999C6.64343 3.12526 6.53815 3.14918 6.44115 3.19515C6.34416 3.24112 6.25769 3.30809 6.18749 3.3916L0.937489 9.6416C0.815012 9.78726 0.748828 9.97511 0.751773 10.1687C0.754717 10.3623 0.826581 10.5479 0.953427 10.6895L11.4534 22.4082C11.5236 22.4866 11.6085 22.5491 11.7029 22.5918C11.7972 22.6345 11.899 22.6566 12.0019 22.6566C12.1047 22.6566 12.2065 22.6345 12.3009 22.5918C12.3952 22.5491 12.4801 22.4866 12.5503 22.4082L23.0503 10.6895C23.1766 10.5474 23.2478 10.3616 23.2501 10.168C23.2523 9.97436 23.1855 9.78678 23.0625 9.6416ZM20.8472 9.375H16.875L13.5 4.6875H16.9097L20.8472 9.375ZM6.99186 10.9375L9.81655 18.2939L3.22593 10.9375H6.99186ZM17.0081 10.9375H20.7741L14.1834 18.2939L17.0081 10.9375ZM7.0903 4.6875H10.5L7.12499 9.375H3.1528L7.0903 4.6875Z" fill="#F3F4F6"/>
</svg>
