<svg width="28" height="30" viewBox="0 0 28 30" fill="none" xmlns="http://www.w3.org/2000/svg">
<path d="M18.8125 14.0625C18.8125 15.0823 18.5303 16.0792 18.0014 16.9272C17.4726 17.7751 16.721 18.436 15.8417 18.8263C14.9623 19.2165 13.9947 19.3186 13.0611 19.1197C12.1276 18.9207 11.2701 18.4296 10.597 17.7085C9.92401 16.9874 9.46566 16.0686 9.27997 15.0684C9.09428 14.0682 9.18958 13.0315 9.55383 12.0893C9.91808 11.1471 10.5349 10.3418 11.3263 9.77523C12.1177 9.20866 13.0482 8.90625 14 8.90625C15.2764 8.90625 16.5004 9.4495 17.403 10.4165C18.3055 11.3835 18.8125 12.695 18.8125 14.0625ZM24.5 5.625V24.375C24.5 24.8723 24.3156 25.3492 23.9874 25.7008C23.6592 26.0525 23.2141 26.25 22.75 26.25H5.25C4.78587 26.25 4.34075 26.0525 4.01256 25.7008C3.68437 25.3492 3.5 24.8723 3.5 24.375V5.625C3.5 5.12772 3.68437 4.65081 4.01256 4.29917C4.34075 3.94754 4.78587 3.75 5.25 3.75H22.75C23.2141 3.75 23.6592 3.94754 23.9874 4.29917C24.3156 4.65081 24.5 5.12772 24.5 5.625ZM22.75 24.375V5.625H5.25V24.375H5.65141C6.17225 22.6142 7.16363 21.0558 8.50281 19.8926C8.7274 19.6988 8.95927 19.5184 9.19844 19.3512C9.27812 19.2954 9.3726 19.2691 9.46753 19.276C9.56247 19.283 9.6527 19.323 9.72453 19.3898C10.9128 20.4889 12.4302 21.0936 14 21.0936C15.5698 21.0936 17.0872 20.4889 18.2755 19.3898C18.3473 19.323 18.4375 19.283 18.5325 19.276C18.6274 19.2691 18.7219 19.2954 18.8016 19.3512C19.0407 19.5191 19.2726 19.6996 19.4972 19.8926C20.8364 21.0558 21.8277 22.6142 22.3486 24.375H22.75Z" fill="#F3F4F6"/>
</svg>
