<svg width="24" height="25" viewBox="0 0 24 25" fill="none" xmlns="http://www.w3.org/2000/svg">
<path d="M21.6 23.4887C21.6838 23.6048 21.735 23.7429 21.7476 23.8876C21.7603 24.0322 21.734 24.1777 21.6716 24.3076C21.6093 24.4376 21.5134 24.5468 21.3948 24.6232C21.2762 24.6995 21.1394 24.7399 21 24.7397H3C2.86072 24.7397 2.72418 24.6993 2.6057 24.623C2.48722 24.5468 2.39147 24.4376 2.32918 24.3079C2.26689 24.1781 2.24052 24.0328 2.25303 23.8883C2.26554 23.7438 2.31643 23.6058 2.4 23.4897C3.06411 22.5622 3.94971 21.832 4.96875 21.3716C4.41017 20.8405 4.01878 20.1459 3.84595 19.379C3.67313 18.6121 3.72695 17.8087 4.00034 17.0742C4.27374 16.3397 4.75394 15.7085 5.37791 15.2634C6.00188 14.8183 6.74046 14.5801 7.49672 14.5801C8.25297 14.5801 8.99156 14.8183 9.61553 15.2634C10.2395 15.7085 10.7197 16.3397 10.9931 17.0742C11.2665 17.8087 11.3203 18.6121 11.1475 19.379C10.9747 20.1459 10.5833 20.8405 10.0247 21.3716C10.7599 21.7026 11.428 22.1762 11.9934 22.7671C12.5589 22.1762 13.227 21.7026 13.9622 21.3716C13.4036 20.8405 13.0122 20.1459 12.8394 19.379C12.6666 18.6121 12.7204 17.8087 12.9938 17.0742C13.2672 16.3397 13.7474 15.7085 14.3713 15.2634C14.9953 14.8183 15.7339 14.5801 16.4902 14.5801C17.2464 14.5801 17.985 14.8183 18.609 15.2634C19.2329 15.7085 19.7131 16.3397 19.9865 17.0742C20.2599 17.8087 20.3137 18.6121 20.1409 19.379C19.9681 20.1459 19.5767 20.8405 19.0181 21.3716C20.0419 21.8296 20.9322 22.5596 21.6 23.4887ZM2.55 14.4272C2.62879 14.4888 2.71845 14.5336 2.81386 14.559C2.90927 14.5845 3.00856 14.5901 3.10607 14.5756C3.20357 14.5611 3.29737 14.5267 3.38212 14.4745C3.46687 14.4222 3.54091 14.353 3.6 14.271C4.05409 13.6403 4.64291 13.1284 5.31983 12.7758C5.99675 12.4233 6.74318 12.2397 7.5 12.2397C8.25682 12.2397 9.00325 12.4233 9.68017 12.7758C10.3571 13.1284 10.9459 13.6403 11.4 14.271C11.4699 14.368 11.5604 14.4467 11.6646 14.501C11.7687 14.5552 11.8836 14.5835 12 14.5835C12.1164 14.5835 12.2313 14.5552 12.3354 14.501C12.4396 14.4467 12.5301 14.368 12.6 14.271C13.0541 13.6403 13.6429 13.1284 14.3198 12.7758C14.9968 12.4233 15.7432 12.2397 16.5 12.2397C17.2568 12.2397 18.0032 12.4233 18.6802 12.7758C19.3571 13.1284 19.9459 13.6403 20.4 14.271C20.4592 14.353 20.5333 14.4222 20.6181 14.4744C20.7029 14.5267 20.7967 14.561 20.8943 14.5755C20.9918 14.5899 21.0911 14.5842 21.1866 14.5587C21.282 14.5332 21.3717 14.4883 21.4505 14.4267C21.5293 14.3651 21.5956 14.2879 21.6458 14.1996C21.6959 14.1112 21.7289 14.0135 21.7428 13.9119C21.7567 13.8103 21.7512 13.7068 21.7267 13.6074C21.7022 13.508 21.6592 13.4146 21.6 13.3325C20.9359 12.4053 20.0503 11.6753 19.0312 11.2153C19.5898 10.6842 19.9812 9.98968 20.154 9.22276C20.3269 8.45584 20.2731 7.65241 19.9997 6.91792C19.7263 6.18343 19.2461 5.55221 18.6221 5.10711C17.9981 4.66201 17.2595 4.42383 16.5033 4.42383C15.747 4.42383 15.0084 4.66201 14.3845 5.10711C13.7605 5.55221 13.2803 6.18343 13.0069 6.91792C12.7335 7.65241 12.6797 8.45584 12.8525 9.22276C13.0253 9.98968 13.4167 10.6842 13.9753 11.2153C13.2401 11.5463 12.572 12.0199 12.0066 12.6108C11.4411 12.0199 10.773 11.5463 10.0378 11.2153C10.5964 10.6842 10.9878 9.98968 11.1606 9.22276C11.3334 8.45584 11.2796 7.65241 11.0062 6.91792C10.7328 6.18343 10.2526 5.55221 9.62866 5.10711C9.00468 4.66201 8.2661 4.42383 7.50984 4.42383C6.75359 4.42383 6.015 4.66201 5.39103 5.10711C4.76706 5.55221 4.28686 6.18343 4.01347 6.91792C3.74007 7.65241 3.68625 8.45584 3.85908 9.22276C4.0319 9.98968 4.42329 10.6842 4.98188 11.2153C3.95805 11.6737 3.06774 12.4041 2.4 13.3335C2.34091 13.4155 2.29791 13.5089 2.27347 13.6083C2.24902 13.7077 2.24361 13.8111 2.25754 13.9127C2.27147 14.0143 2.30446 14.112 2.35464 14.2003C2.40483 14.2885 2.47121 14.3657 2.55 14.4272Z" fill="#F3F4F6"/>
</svg>
